<svg id="color-wheel-Itten" xmlns="http://www.w3.org/2000/svg" viewBox="0 0 512 512"
  >
  <desc>
Цветовой круг по Иоханнесу Иттену (1961). Иоханнес Иттен (11.11.1888 -  27.05.1967) - швейцарский художник, теоретик нового искусства и педагог. Получил всемирную известность благодаря сформированному им учебному курсу Баухауза, так называемому форкурсу, который лёг в основу преподавания многих современных начальных художественных учебных заведений.
  </desc>
  <!-- Vivid orange -->
  <path fill="#ea621f" d="M512 256c0-23-3-45-9-66l-53-15-30 37c5 14 6 29 6 44s-1 30-6 44l29 43 54-21c6-21 9-43 9-66z" />
<!-- Strong cyan -->
  <path fill="#0696bb" d="M0 256c0 23 3 45 8.66 66l50.64 17 32.1-39c-3.9-14-6-29-6-44s2.1-30 6-44L59 178 8.67 190C3 211 0 233 0 256z"  />
<!-- Vivid yellow -->
  <path fill="#fdc60b" d="M384 34.6c-20-12-41-19.5-62-25.56L285 40.7l15 51.2c15 3 28 9.1 42 16.1 13 8 24 17 34 28l49-13 12-47.7c-15-15.1-33-30.1-53-40.7z" />
  <!-- Dark moderate blue -->
  <path fill="#444e99" d="M128 477c20 12 41 20 62 26l45-33-23-50c-15-3-28-9-42-16-13-8-24-17-35-28l-49.8 11-10.4 50c15.6 15 33.2 30 53.2 40z" />
<!-- Strong green -->
  <path fill="#8cbb26" d="M128 34.6c-20 10.6-37.6 25.6-53.2 40.7l9.8 50.7 50.4 10c11-11 22-20 35-28 14-7 27-13.1 42-16.1l20-48.2-42-34.66c-21 6.06-42 13.56-62 25.56z" />
  <!-- Strong pink -->
  <path fill="#c4037d" d="M384 477c20-10 38-25 53-40l-9-55-52-6c-10 11-21 20-34 28-14 7-27 13-42 16l-14 50 36 33c21-6 42-14 62-26z" />
<!-- Dark moderate violet -->
  <path fill="#6d398b" d="M108 342l146-54 150 54-148 84zm148 170c23 0 45-3 66-9l-22-83c-14 5-29 6-44 6s-30-1-44-6l-22 83c21 6 43 9 66 9z" />
  <!-- Dark cyan - lime green -->
  <path fill="#008e5b" d="M256 85.8L221 236 108 342V170zM34.3 128c-11.4 20-20 41-25.66 62l82.66 22c3.7-15 8.7-28 16.7-42 8-13 17-24 28-34L75 75.3C59.5 90.4 45.8 108 34.3 128z" />
<!-- Vivid orange -->
  <path fill="#f18e1c" d="M404 342L288 239 256 85.8 404 170zm73-214c-10-20-25-37.6-40-52.7L376 136c11 10 20 21 28 34 7 14 13 27 16 42l83-22c-6-21-14-42-26-62z" />
  <!-- Dark blue -->
  <path fill="#2a71b0" d="M300 230l-44 112H108l74-128zM34.3 384c11.5 20 25.2 38 40.7 53l61-61c-11-10-20-21-28-34-8-14-13-27-16.7-42L8.64 322c5.66 21 14.26 42 25.66 62z" />
<!-- Vivid red -->
  <path fill="#e32322" d="M256 256l18-54 56 12 74 128H256zm221 128c12-20 20-41 26-62l-83-22c-3 15-9 28-16 42-8 13-17 24-28 34l61 61c15-15 30-33 40-53z" />
<!-- Pure (or mostly pure) yellow -->
  <path fill="#f4e500" d="M256 256l-74-42 74-128.2L330 214zm0-256c-23 0-45 3.01-66 9.04l22 82.86c14-4.6 29-6.1 44-6.1s30 1.5 44 6.1l22-82.86C301 3.01 279 0 256 0z"  />
  <text x="0" y="20" font-family="'Noto Sans'" font-weight="bold" font-size="22" fill="#c4037d">
    Color wheel
    <a href="https://ru.wikipedia.org/wiki/%D0%98%D1%82%D1%82%D0%B5%D0%BD,_%D0%98%D0%BE%D0%B3%D0%B0%D0%BD%D0%BD%D0%B5%D1%81" target="_blank">
    <tspan x="370" y="510" font-weight="normal" font-size="18" font-style="italic" fill="#8cbb26">
      By Johannes Itten</tspan>
    </a>
  </text>
</svg>
