<?xml version="1.0" encoding="UTF-8" standalone="no"?>
<svg
   xmlns:dc="http://purl.org/dc/elements/1.1/"
   xmlns:cc="http://creativecommons.org/ns#"
   xmlns:rdf="http://www.w3.org/1999/02/22-rdf-syntax-ns#"
   xmlns:svg="http://www.w3.org/2000/svg"
   xmlns="http://www.w3.org/2000/svg"
   xmlns:sodipodi="http://sodipodi.sourceforge.net/DTD/sodipodi-0.dtd"
   xmlns:inkscape="http://www.inkscape.org/namespaces/inkscape"
   width="16"
   height="16"
   viewBox="0 0 16 16"
   style="border:solid"
   version="1.1"
   id="svg6"
   sodipodi:docname="b6_16.svg"
   inkscape:version="1.0.2 (e86c870879, 2021-01-15)">
  <metadata
     id="metadata12">
    <rdf:RDF>
      <cc:Work
         rdf:about="">
        <dc:format>image/svg+xml</dc:format>
        <dc:type
           rdf:resource="http://purl.org/dc/dcmitype/StillImage" />
        <dc:title></dc:title>
      </cc:Work>
    </rdf:RDF>
  </metadata>
  <defs
     id="defs10" />
  <sodipodi:namedview
     pagecolor="#ffffff"
     bordercolor="#666666"
     borderopacity="1"
     objecttolerance="10"
     gridtolerance="10"
     guidetolerance="10"
     inkscape:pageopacity="0"
     inkscape:pageshadow="2"
     inkscape:window-width="2560"
     inkscape:window-height="1368"
     id="namedview8"
     showgrid="true"
     showguides="true"
     inkscape:guide-bbox="true"
     inkscape:zoom="12.696969"
     inkscape:cx="22.869467"
     inkscape:cy="23.353798"
     inkscape:window-x="0"
     inkscape:window-y="35"
     inkscape:window-maximized="1"
     inkscape:current-layer="svg6">
    <sodipodi:guide
       position="1.6145586,9.5811452"
       orientation="1,0"
       id="guide837" />
    <inkscape:grid
       type="xygrid"
       id="grid839" />
  </sodipodi:namedview>
  <path
     d="M 7.4894278,0.7705754 V 6.9919883 H 11.00653 c 1.193718,0 2.04679,0.2243263 2.563583,0.6715227 0.516792,0.434086 0.775917,1.198834 0.775917,2.291332 v 3.082302 c 0,1.092498 -0.259124,1.86453 -0.775917,2.311726 C 13.053321,15.782957 12.198793,16 11.007985,16 H 4.863 1.646 V 13.037145 L 1.6460305,2.9628551 C 1.6460338,1.8703569 1.8847741,1.1070648 2.3608058,0.6715222 2.8397489,0.2243263 3.6738961,0 4.8647029,0 h 6.1432821 c 1.190808,0 2.045336,0.2184996 2.562129,0.6525856 0.516792,0.4340859 0.775916,1.197378 0.775916,2.2913328 v 0.3160962 c 0,1.0924981 -0.259124,1.8645302 -0.775917,2.3102694 -0.516793,0.4355427 -1.371321,0.6525856 -2.562128,0.6525856 H 8.381805 V 0.7705754 Z m 0.893833,6.9919886 h -0.893833 v 7.468317 h 0.893833 z"
     id="path2"
     style="stroke-width:1.4562"
     sodipodi:nodetypes="ccscsscscccscssssscscccccccc" />
</svg>
