<svg xmlns="http://www.w3.org/2000/svg" width="16" height="16" viewBox="0 0 16 16">
  <path fill="0" d="M0 11.434V4.566C0 3.821.175 3.3.525 3.004c.35-.305.93-.458 1.738-.458h4.16c.809 0 1.388.148 1.738.445.35.296.525.816.525 1.562v2.195h-4.04V3.07H4.04v9.858h.607V7.314h4.04v6.14H2.262c-.809 0-1.388-.148-1.738-.445-.35-.305-.525-.83-.525-1.575zM12.85 6.223V3.07h-.607v3.152h-.888c-.809 0-1.388-.135-1.738-.405-.35-.269-.525-.69-.525-1.265 0-.746.175-1.266.525-1.562.35-.297.93-.445 1.738-.445h2.383c.808 0 1.387.153 1.737.458.35.296.525.817.525 1.562 0 .566-.175.983-.525 1.252-.35.27-.93.405-1.737.405zm-.607 6.706h.607V6.788h.888c.808 0 1.387.153 1.737.458.35.296.525.817.525 1.562v2.626c0 .745-.175 1.27-.525 1.575-.35.297-.93.445-1.737.445h-2.383c-.809 0-1.388-.148-1.738-.445-.35-.305-.525-.83-.525-1.575V8.808c0-.745.175-1.266.525-1.562.35-.305.93-.458 1.738-.458h.888z"/>
</svg>
