<svg xmlns="http://www.w3.org/2000/svg" width="768" height="512" viewBox="0 0 768 512">
  <path fill="#000" d="M10 417.185V94.815c0-34.976 8.217-59.417 24.652-73.324C51.086 7.164 78.267 0 116.192 0h195.32c37.925 0 65.105 6.953 81.54 20.86 16.435 13.905 24.652 38.347 24.652 73.323v103.032h-189.63V24.652H199.63v462.696h28.444V223.763h189.63V512H116.193c-37.926 0-65.107-6.953-81.541-20.86C18.217 476.814 10 452.162 10 417.186z" />
  <path fill="#000" d="M616.356 172.563V24.652H587.91v147.911h-41.718c-37.926 0-65.107-6.321-81.541-18.963C448.217 140.958 440 121.152 440 94.183c0-34.976 8.217-59.418 24.652-73.324C481.086 6.953 508.267 0 546.192 0h111.882C696 0 723.18 7.164 739.614 21.491c16.435 13.907 24.653 38.348 24.653 73.324 0 26.548-8.218 46.143-24.652 58.785-16.435 12.642-43.615 18.963-81.54 18.963zM587.91 487.348h28.445V199.111h41.718c37.926 0 65.106 7.164 81.54 21.492 16.435 13.906 24.653 38.347 24.653 73.323v123.26c0 34.975-8.218 59.627-24.652 73.955C723.18 505.047 696 512 658.075 512H546.192c-37.926 0-65.107-6.954-81.541-20.86C448.217 476.813 440 452.16 440 417.185V293.926c0-34.976 8.217-59.417 24.652-73.323 16.434-14.328 43.615-21.492 81.54-21.492h41.72z"/>
</svg>
