<svg xmlns="http://www.w3.org/2000/svg" width="16" height="16" class="v6bi-book-fill">
  <path fill="#00d1b2" d="M8 1.783C7.015.936 5.587.81 4.287.94c-1.514.153-3.042.672-3.994 1.105A.5.5 0 0 0 0 2.5v11a.5.5 0 0 0 .707.455c.882-.4 2.303-.881 3.68-1.02 1.409-.142 2.59.087 3.223.877a.5.5 0 0 0 .78 0c.633-.79 1.814-1.019 3.222-.877 1.378.139 2.8.62 3.681 1.02A.5.5 0 0 0 16 13.5v-11a.5.5 0 0 0-.293-.455c-.952-.433-2.48-.952-3.994-1.105C10.413.809 8.985.936 8 1.783z"/>
  <path fill="#f8f9fa" d="M4.81 3.526v2.99H6.5c.574 0 .984.107 1.233.322.248.209.373.576.373 1.101v1.482c0 .525-.125.896-.373 1.11-.249.21-.66.313-1.232.313H3.547c-.573 0-.974-.104-1.204-.312C2.115 10.317 2 9.946 2 9.42V4.579c0-.525.115-.891.344-1.1.23-.216.631-.323 1.204-.323h2.954c.572 0 .983.105 1.232.313.248.209.373.576.373 1.101v.152c0 .525-.125.896-.373 1.11-.249.21-.66.314-1.232.314H5.239v-2.62zm.43 3.36h-.43v3.589h.43zM11.666 5.747V3.526h-.43v2.62h1.061c.58 0 .991.107 1.233.322.249.21.373.576.373 1.101v1.852c0 .525-.124.896-.373 1.11-.248.21-.659.314-1.233.314h-1.691c-.574 0-.984-.105-1.233-.314C9.125 10.316 9 9.946 9 9.421V4.57c0-.525.125-.893.373-1.102.249-.208.66-.313 1.233-.313h1.691c.574 0 .985.107 1.233.322.249.21.373.577.373 1.102v1.168zm0 .769h-.43v3.958h.43z"/>
</svg>
