<svg xmlns="http://www.w3.org/2000/svg" width="16" height="16" viewBox="0 0 16 16" style="border:solid">
    <path d="M 4.014,3.037 V 7.308 H 6.43 c 0.82,0 1.406,0.154 1.761,0.461 0.355,0.298 0.533,0.823 0.533,1.573 v 2.116 c 0,0.75 -0.178,1.28 -0.533,1.587 -0.355,0.298 -0.942,0.447 -1.76,0.447 H 2.21 C 1.392,13.492 0.818,13.343 0.49,13.045 0.164,12.738 0,12.208 0,11.458 V 4.542 C 0,3.792 0.164,3.268 0.491,2.969 0.82,2.662 1.393,2.508 2.211,2.508 h 4.22 c 0.818,0 1.405,0.15 1.76,0.448 0.355,0.298 0.533,0.822 0.533,1.573 v 0.217 c 0,0.75 -0.178,1.28 -0.533,1.586 C 7.836,6.631 7.249,6.78 6.431,6.78 H 4.627 V 3.037 Z m 0.614,4.8 H 4.014 v 5.127 h 0.614 z"/>
    <path d="m 12.805,6.2095 v -3.173 h -0.614 v 3.743 h 1.515 c 0.829,0 1.416,0.154 1.762,0.46 0.355,0.3 0.532,0.824 0.532,1.574 v 2.645 c 0,0.75 -0.177,1.28 -0.532,1.586 -0.355,0.299 -0.942,0.448 -1.762,0.448 H 11.29 c -0.82,0 -1.406,-0.15 -1.761,-0.448 -0.355,-0.307 -0.533,-0.836 -0.533,-1.586 v -6.93 c 0,-0.75 0.178,-1.275 0.533,-1.574 0.355,-0.298 0.942,-0.447 1.761,-0.447 h 2.416 c 0.82,0 1.407,0.153 1.762,0.46 0.355,0.3 0.532,0.824 0.532,1.574 v 1.668 z m 0,1.099 h -0.614 v 5.655 h 0.614 z"/>
</svg>
