<svg xmlns="http://www.w3.org/2000/svg" width="736" height="512" viewBox="0 0 736 512">
  <path d="M585.766 175.192V30.748h-27.778v170.37h68.519c37.448 0 63.991 6.996 79.63 20.988 16.049 13.58 24.073 37.448 24.073 71.605v120.37c0 34.156-8.024 58.23-24.074 72.222-16.05 13.58-42.592 20.37-79.63 20.37H517.248c-37.037 0-63.58-6.79-79.63-20.37-16.049-13.992-24.073-38.066-24.073-72.222V98.649c0-34.157 8.024-58.025 24.074-71.605 16.049-13.58 42.592-20.37 79.63-20.37h109.259c37.037 0 63.58 6.995 79.63 20.987 16.049 13.58 24.073 37.449 24.073 71.605v75.926zm0 50h-27.778v257.407h27.778z"/>
  <path d="M188.26 30.074V224.52h109.259c37.037 0 63.58 6.995 79.63 20.987 16.049 13.58 24.073 37.449 24.073 71.605v96.296c0 34.157-8.024 58.23-24.074 72.223-16.05 13.58-42.592 20.37-79.63 20.37h-190.74C69.74 506 43.815 499.21 29 485.63c-14.815-13.992-22.222-38.066-22.222-72.223V98.593c0-34.157 7.407-58.025 22.222-71.605C43.815 12.996 69.74 6 106.778 6h190.74c37.038 0 63.58 6.79 79.63 20.37 16.05 13.58 24.074 37.449 24.074 71.605v9.877c0 34.156-8.024 58.23-24.074 72.222-16.05 13.58-42.592 20.37-79.63 20.37h-81.481V30.074zm27.777 218.519h-27.778v233.333h27.778z"/>
</svg>
