<svg xmlns="http://www.w3.org/2000/svg" {{ with .width }} width="{{ . }}"{{ end }}{{ with .height }} height="{{ . }}"{{ end }}{{ with .class }} class="{{ . }}"{{ end }}  focusable="false" viewBox="0 0 1024 512" fill="currentColor" >
<rect x="0" y="0" width="1024" height="512" fill="#040b0e" />
  <ellipse ry="250" rx="250.12" cx="258.875" cy="250" fill="url(#paint0_radial)"/>
  <path fill="#ffc107" fill-rule="evenodd" d="M63.78 336.875h61.28v28.75H63.78zm62.53-1.25v31.25H62.53v-31.25z" clip-rule="evenodd"/>
  <path fill="#ffc107" fill-rule="evenodd" d="M126.31 336.875h55.653a4.377 4.375 0 014.377 4.375v20a4.377 4.375 0 01-4.377 4.375H126.31zm55.653-1.25a5.628 5.625 0 015.627 5.625v20a5.628 5.625 0 01-5.627 5.625H125.06v-31.25zm-176.22 0C2.57 335.625 0 338.143 0 341.25v20c0 3.107 2.571 5.625 5.743 5.625H62.53v-31.25zm9.264 13.125a2.501 2.5 0 000 5h32.516a2.501 2.5 0 000-5z" clip-rule="evenodd"/>
  <path fill="#007bff" fill-rule="evenodd" d="M49.399 250a5.002 5 0 100-10 5.002 5 0 000 10zm0 1.25a6.251 6.251 0 006.253-6.25c0-3.452-2.8-6.25-6.253-6.25a6.251 6.251 0 00-6.253 6.25c0 3.452 2.8 6.25 6.253 6.25zm-18.76 0a6.251 6.251 0 006.254-6.25c0-3.452-2.8-6.25-6.253-6.25a6.251 6.251 0 00-6.253 6.25c0 3.452 2.8 6.25 6.253 6.25zm0-3.125a3.127 3.125 0 100-6.25 3.127 3.125 0 000 6.25zm33.142-9.375a2.501 2.5 0 00-2.501 2.5v7.5a2.501 2.5 0 002.5 2.5h7.504a2.501 2.5 0 002.502-2.5v-7.5a2.501 2.5 0 00-2.502-2.5zm7.3 3.328a.69.69 0 00-.994.02l-3.199 4.073-1.928-1.927a.691.69 0 00-.977.977l2.438 2.436a.69.69 0 00.993-.019l3.678-4.594a.69.69 0 00-.01-.967zM90.044 240H82.54a1.25 1.25 0 00-1.25 1.25v7.5a1.25 1.25 0 001.25 1.25h7.503a1.25 1.25 0 001.251-1.25v-7.5a1.25 1.25 0 00-1.25-1.25zm-7.503-1.25a2.501 2.5 0 00-2.501 2.5v7.5a2.501 2.5 0 002.5 2.5h7.504a2.501 2.5 0 002.502-2.5v-7.5a2.501 2.5 0 00-2.502-2.5z" clip-rule="evenodd"/>
  <path fill="#adb5bd" fill-rule="evenodd" d="M273.257 346.25c0-3.452 2.8-6.25 6.253-6.25h162.578a6.251 6.251 0 016.253 6.25v81.328c0 3.452-2.8 6.25-6.253 6.25h-72.756a4.999 4.996 0 00-3.527 1.455l-4.125 4.097a1.25 1.25 0 01-1.763 0l-4.124-4.097a4.999 4.996 0 00-3.527-1.455H279.51a6.251 6.251 0 01-6.253-6.25zm6.253-5a5.002 5 0 00-5.003 5v18.125H447.09V346.25a5.002 5 0 00-5.002-5zm167.58 24.375H274.507v61.953a5.002 5 0 005.003 5h72.756a6.253 6.25 0 014.408 1.818l4.125 4.098 4.124-4.098a6.253 6.25 0 014.409-1.818h72.756a5.002 5 0 005.002-5z" clip-rule="evenodd"/>
  <path fill="#007bff" fill-rule="evenodd" d="M292.016 46.25c0-3.452 2.8-6.25 6.253-6.25h162.578a6.251 6.251 0 016.253 6.25v100c0 3.452-2.8 6.25-6.253 6.25H298.269a6.251 6.251 0 01-6.253-6.25zm6.253-5a5.002 5 0 00-5.003 5v18.125H465.85V46.25a5.002 5 0 00-5.002-5zm167.58 24.375H293.266v60.625H465.85zm0 61.875h-85.666v23.75h80.664a5.002 5 0 005.002-5zm-86.916 23.75V127.5h-85.667v18.75a5.002 5 0 005.003 5z" clip-rule="evenodd"/>
  <path fill="#007bff" fill-rule="evenodd" d="M450.4 49.558a.625.625 0 01.884 0l2.685 2.683 2.684-2.683a.625.625 0 11.884.884l-2.684 2.683 2.684 2.683a.625.625 0 11-.884.884l-2.684-2.683-2.685 2.683a.625.625 0 11-.884-.884l2.685-2.683-2.685-2.683a.625.625 0 010-.884z" clip-rule="evenodd"/>
  <path fill="#007bff" d="M398.317 139.375a2.501 2.5 0 012.501-2.5h45.022a2.501 2.5 0 010 5h-45.022a2.501 2.5 0 01-2.501-2.5zm-87.542 0a2.501 2.5 0 012.5-2.5h45.023a2.501 2.5 0 010 5h-45.022a2.501 2.5 0 01-2.501-2.5z"/>
  <path fill="#e83e8c" fill-rule="evenodd" d="M450.842 270H274.507a4.377 4.375 0 00-4.377 4.375v20a4.377 4.375 0 004.377 4.375h176.335a4.377 4.375 0 004.377-4.375v-20a4.377 4.375 0 00-4.377-4.375zm-176.335-1.25a5.628 5.625 0 00-5.627 5.625v20a5.628 5.625 0 005.627 5.625h176.335a5.628 5.625 0 005.628-5.625v-20a5.628 5.625 0 00-5.628-5.625zm193.844 0a5.628 5.625 0 00-5.628 5.625v20A5.628 5.625 0 00468.35 300h45.021a5.628 5.625 0 005.628-5.625v-20a5.628 5.625 0 00-5.628-5.625zm6.253 13.125a2.501 2.5 0 000 5h32.515a2.501 2.5 0 000-5z" clip-rule="evenodd"/>
  <path fill="#dc3545" fill-rule="evenodd" d="M493.363 210H315.777a3.752 3.75 0 100 7.5h177.586a3.752 3.75 0 100-7.5zm-177.586-1.25a5.002 5 0 000 10h177.586a5.002 5 0 000-10z" clip-rule="evenodd"/>
  <path fill="#dc3545" d="M310.775 213.75a5.002 5 0 015.002-5H467.1v10H315.777a5.002 5 0 01-5.002-5z"/>
  <path fill="#adb5bd" fill-rule="evenodd" d="M13.131 169.375a3.752 3.75 0 00-3.751 3.75v17.5a3.752 3.75 0 003.751 3.75h50.972a3.752 3.75 0 012.652 1.098l4.713 4.71a.625.625 0 00.884 0l4.712-4.71a3.752 3.75 0 012.653-1.098h50.971a3.752 3.75 0 003.752-3.75v-17.5a3.752 3.75 0 00-3.752-3.75zm20.635 10a2.501 2.5 0 000 5h76.287a2.501 2.5 0 000-5z" clip-rule="evenodd"/>
  <path fill="#20c997" fill-rule="evenodd" d="M135.69 98.125c0-3.452-2.8-6.25-6.253-6.25h-63.78a6.251 6.251 0 00-6.253 6.25V122.5a.625.625 0 001.25 0V98.125a5.002 5 0 015.003-5h63.78a5.002 5 0 015.003 5V122.5a.625.625 0 00.625.625h123.81a.625.625 0 000-1.25H135.69z" clip-rule="evenodd"/>
  <path fill="#20c997" d="M71.91 108.75a2.501 2.5 0 012.5-2.5h45.023a2.501 2.5 0 010 5H74.41a2.501 2.5 0 01-2.501-2.5z"/>
  <path transform="scale(.6253 .625)" fill="url(#paint1_linear)" fill-rule="evenodd" d="M166.606 300.603c-8.615-28.187 6.531-60.366 36.506-68.398l309.643-82.969c29.975-8.031 59.181 12.264 65.814 40.982 6.371 27.588 17.095 62.662 33.744 89.141 16.7 26.562 36.732 40.854 62.058 36.589l7.125 26.591c-24.065 8.969-34.268 31.362-35.45 62.716-1.178 31.256 7.072 66.993 15.348 94.07 8.615 28.187-6.531 60.366-36.506 68.398l-309.643 82.969c-29.975 8.031-59.181-12.264-65.814-40.982-6.371-27.587-17.095-62.661-33.744-89.141-16.7-26.562-36.732-40.854-62.058-36.588l-7.125-26.592c24.065-8.969 34.268-31.362 35.45-62.715 1.178-31.257-7.072-66.994-15.348-94.071z" clip-rule="evenodd" filter="url(#filter0_d)"/>
  <path transform="scale(.6253 .625)" fill-opacity=".15" fill-rule="evenodd" d="M203.37 233.171c-29.369 7.87-44.275 39.435-35.808 67.14 8.286 27.109 16.576 62.974 15.391 94.4-1.175 31.158-11.239 53.906-35.25 63.291l6.659 24.848c25.486-3.877 45.576 10.791 62.172 37.187 16.739 26.623 27.493 61.828 33.872 89.448 6.519 28.227 35.21 48.11 64.58 40.241l309.644-82.969c29.369-7.87 44.275-39.435 35.807-67.139-8.285-27.11-16.575-62.975-15.39-94.401 1.175-31.158 11.239-53.906 35.25-63.29l-6.659-24.849c-25.486 3.877-45.576-10.791-62.172-37.186-16.739-26.624-27.493-61.829-33.872-89.449-6.519-28.227-35.21-48.11-64.58-40.241zm471.001 82.777c-25.326 4.265-45.358-10.027-62.058-36.589-16.649-26.479-27.373-61.553-33.744-89.141-6.633-28.718-35.839-49.013-65.814-40.982l-309.643 82.969c-29.975 8.032-45.121 40.211-36.506 68.398 8.276 27.077 16.526 62.814 15.348 94.071-1.182 31.353-11.385 53.746-35.45 62.715l7.125 26.592c25.326-4.266 45.358 10.026 62.058 36.588 16.649 26.479 27.373 61.554 33.744 89.141 6.633 28.718 35.839 49.013 65.814 40.982l309.643-82.969c29.975-8.032 45.121-40.211 36.506-68.398-8.276-27.077-16.526-62.814-15.348-94.07 1.182-31.354 11.385-53.747 35.45-62.716z" clip-rule="evenodd" filter="url(#filter1_d)"/>

<symbol id="bi-sidebar-left" viewBox="0 0 16 16">
  <path fill-rule="evenodd" d="M14 2H2a1 1 0 0 0-1 1v10a1 1 0 0 0 1 1h12a1 1 0 0 0 1-1V3a1 1 0 0 0-1-1zM2 1a2 2 0 0 0-2 2v10a2 2 0 0 0 2 2h12a2 2 0 0 0 2-2V3a2 2 0 0 0-2-2H2z"/>
  <path d="M3 4a1 1 0 0 1 1-1h2a1 1 0 0 1 1 1v8a1 1 0 0 1-1 1H4a1 1 0 0 1-1-1V4z"/>
</symbol>
<symbol id="bi-sidebar-right" viewBox="0 0 16 16">
  <path fill-rule="evenodd" d="M2 2h12a1 1 0 0 1 1 1v10a1 1 0 0 1-1 1H2a1 1 0 0 1-1-1V3a1 1 0 0 1 1-1zm12-1a2 2 0 0 1 2 2v10a2 2 0 0 1-2 2H2a2 2 0 0 1-2-2V3a2 2 0 0 1 2-2h12z"/>
  <path d="M13 4a1 1 0 0 0-1-1h-2a1 1 0 0 0-1 1v8a1 1 0 0 0 1 1h2a1 1 0 0 0 1-1V4z"/>
</symbol>
<use xlink:href="#bi-sidebar-left" transform="translate(40,200) scale(.4) rotate(-15)" fill="#e0f2f1" />
<text x="740" y="100" fill="#6610f2" font-size="70" font-weight="700" font-family="Fira Sans" text-anchor="middle">Bootstrap
<tspan x="740" y="340" font-size="54" fill="#00d1b2">Bootstrap icons</tspan>
</text>
<text x="740" y="150" font-size="24" font-family="Fira Sans" text-anchor="middle" fill="#e0f2f1">
Quicly design and cusomize reponsive
<tspan x="740" y="185">moble-first sites with the world’s most</tspan>
<tspan x="740" y="220">popular front-end open source toolkit</tspan>
<tspan x="765" y="405" font-size="32" fill="#00d1b2">Left modal</tspan>
<tspan x="770" y="455" font-size="32" fill="#00d1b2">Right modal</tspan>
</text>
<use xlink:href="#bi-sidebar-left" transform="translate(620,380) scale(.06)" fill="#00d1b2" />
<use xlink:href="#bi-sidebar-right" transform="translate(620,428) scale(.06)" fill="#00d1b2" />

  <defs id="defs120">
    <filter filterUnits="userSpaceOnUse" color-interpolation-filters="sRGB" y="96" x="98" height="623.928" width="704" id="filter0_d">
      <feFlood id="feFlood42" result="BackgroundImageFix" flood-opacity="0"/>
      <feColorMatrix id="feColorMatrix44" values="0 0 0 0 0 0 0 0 0 0 0 0 0 0 0 0 0 0 127 0" in="SourceAlpha"/>
      <feOffset id="feOffset46" dy="8"/>
      <feGaussianBlur id="feGaussianBlur48" stdDeviation="16"/>
      <feColorMatrix id="feColorMatrix50" values="0 0 0 0 0.423529 0 0 0 0 0.0666667 0 0 0 0 0.956863 0 0 0 0.25 0"/>
      <feBlend mode="normal" id="feBlend52" result="effect1_dropShadow" in2="BackgroundImageFix"/>
      <feBlend mode="normal" id="feBlend54" result="shape" in2="effect1_dropShadow" in="SourceGraphic"/>
    </filter>
    <filter filterUnits="userSpaceOnUse" color-interpolation-filters="sRGB" y="96" x="98" height="623.928" width="704" id="filter1_d">
      <feFlood id="feFlood57" result="BackgroundImageFix" flood-opacity="0"/>
      <feColorMatrix id="feColorMatrix59" values="0 0 0 0 0 0 0 0 0 0 0 0 0 0 0 0 0 0 127 0" in="SourceAlpha"/>
      <feOffset id="feOffset61" dy="8"/>
      <feGaussianBlur id="feGaussianBlur63" stdDeviation="16"/>
      <feColorMatrix id="feColorMatrix65" values="0 0 0 0 0.423529 0 0 0 0 0.0666667 0 0 0 0 0.956863 0 0 0 0.25 0"/>
      <feBlend mode="normal" id="feBlend67" result="effect1_dropShadow" in2="BackgroundImageFix"/>
      <feBlend mode="normal" id="feBlend69" result="shape" in2="effect1_dropShadow" in="SourceGraphic"/>
    </filter>
    <filter filterUnits="userSpaceOnUse" color-interpolation-filters="sRGB" y="252.368" x="327.804" height="302.767" width="260.144" id="filter2_d">
      <feFlood id="feFlood72" result="BackgroundImageFix" flood-opacity="0"/>
      <feColorMatrix id="feColorMatrix74" values="0 0 0 0 0 0 0 0 0 0 0 0 0 0 0 0 0 0 127 0" in="SourceAlpha"/>
      <feOffset id="feOffset76" dy="4"/>
      <feGaussianBlur id="feGaussianBlur78" stdDeviation="8"/>
      <feColorMatrix id="feColorMatrix80" values="0 0 0 0 0 0 0 0 0 0 0 0 0 0 0 0 0 0 0.15 0"/>
      <feBlend mode="normal" id="feBlend82" result="effect1_dropShadow" in2="BackgroundImageFix"/>
      <feBlend mode="normal" id="feBlend84" result="shape" in2="effect1_dropShadow" in="SourceGraphic"/>
    </filter>
    <filter filterUnits="userSpaceOnUse" color-interpolation-filters="sRGB" y="251.755" x="327.192" height="303.992" width="261.369" id="filter3_d">
      <feFlood id="feFlood87" result="BackgroundImageFix" flood-opacity="0"/>
      <feColorMatrix id="feColorMatrix89" values="0 0 0 0 0 0 0 0 0 0 0 0 0 0 0 0 0 0 127 0" in="SourceAlpha"/>
      <feOffset id="feOffset91" dy="4"/>
      <feGaussianBlur id="feGaussianBlur93" stdDeviation="8"/>
      <feColorMatrix id="feColorMatrix95" values="0 0 0 0 0 0 0 0 0 0 0 0 0 0 0 0 0 0 0.15 0"/>
      <feBlend mode="normal" id="feBlend97" result="effect1_dropShadow" in2="BackgroundImageFix"/>
      <feBlend mode="normal" id="feBlend99" result="shape" in2="effect1_dropShadow" in="SourceGraphic"/>
    </filter>
    <linearGradient gradientTransform="translate(-36)" gradientUnits="userSpaceOnUse" y2="494.972" y1="251.5" x2="769.059" x1="211.405" id="paint1_linear">
      <stop id="stop102" stop-color="#9013fe" offset="0"/>
      <stop id="stop104" stop-color="#6610f2" offset=".995"/>
    </linearGradient>
    <linearGradient gradientTransform="translate(-36)" gradientUnits="userSpaceOnUse" y2="465.49" y1="319.901" x2="515.493" x1="363.642" id="paint2_linear">
      <stop id="stop107" stop-color="#fff" offset="0"/>
      <stop id="stop109" stop-color="#f1e5fc" offset="1"/>
    </linearGradient>
    <radialGradient gradientUnits="userSpaceOnUse" gradientTransform="matrix(0 250 -250.12047 0 258.875 250)" r="1" cy="0" cx="0" id="paint0_radial">
      <stop id="stop112" stop-color="#ced4da" offset="0"/>
      <stop id="stop114" stop-opacity="0" stop-color="#ced4da" offset="1"/>
    </radialGradient>
    <clipPath id="clip0">
      <path id="path117" d="M0 0h900v800H0z" fill="#fff"/>
    </clipPath>
  </defs>
</svg>
